:SAMPLES-PER-SECOND 30
:FULLY-SPECIFIED
:DEGREES
223
root  -57.4735 32.6175 -2.26842 44.6394 83.2986 129.766
RightUpLeg  62.6041 19.247 -47.7313
RightLeg  51.7544 16.942 21.4158
RightFoot  -30.5612 -0.483262 -1.62585
RightToes  3.49245e-010 0 -3.6325e-017
Spine  -14.6381 -43.4683 63.8857
Spine1  91.8172 26.1361 -79.6593
HEad  -37.1862 -0.10434 -8.21678
LeftShoulder1  0.280023 -5.30159 6.00676
LeftArm  -65.0308 -38.3686 -21.3362
LeftForeArm  -2.30876 -70.8128 -36.8401
LeftHand  -0.413907 10.3422 -8.06788
RightShoulder  0.0625435 -0.406311 -7.38094
RightArm  -66.6857 28.7411 8.94285
RightForeArm  -11.7938 71.135 39.0129
RightHand  -0.369113 8.97589 -3.36696
LeftUpLeg  69.2111 -0.031276 8.73468
LeftLeg  49.8907 -1.26244 -1.05272
LeftFoot  -32.2622 -0.123564 -1.72208
LeftToes  -5.36635e-011 -6.70219e-011 5.24975e-011
224
root  -57.2132 31.8635 -2.47585 32.8279 83.1627 125.037
RightUpLeg  67.1135 25.3127 -44.7517
RightLeg  53.5047 15.9391 21.5068
RightFoot  -31.7144 -0.523435 -1.71059
RightToes  3.49245e-010 0 -3.6325e-017
Spine  -16.1799 -43.7356 63.3883
Spine1  98.5252 31.0133 -78.6163
HEad  -35.9371 0.62839 -7.73929
LeftShoulder1  0.18297 -5.41827 7.30704
LeftArm  -68.3533 -38.0511 -19.3027
LeftForeArm  -6.48272 -69.8244 -34.8901
LeftHand  -0.455471 11.6061 -7.02392
RightShoulder  0.0253617 -0.251449 -8.92772
RightArm  -68.9935 27.442 8.41835
RightForeArm  -10.0279 71.3009 39.3283
RightHand  -0.304102 8.09914 -2.99279
LeftUpLeg  76.0755 -0.354499 8.13579
LeftLeg  51.7249 -0.547875 -0.182857
LeftFoot  -33.5153 -0.118746 -1.64117
LeftToes  -5.36635e-011 -6.70219e-011 5.24975e-011
225
root  -56.8295 31.2292 -2.60768 21.6061 83.1317 119.829
RightUpLeg  71.7663 30.2009 -41.6404
RightLeg  54.8733 15.3223 21.7581
RightFoot  -32.7976 -0.579205 -1.88067
RightToes  3.49245e-010 0 -3.6325e-017
Spine  -17.7419 -42.78 61.256
Spine1  106.293 35.9165 -75.1409
HEad  -34.1729 1.41422 -7.72729
LeftShoulder1  0.110869 -5.45503 8.23572
LeftArm  -71.1474 -37.2333 -17.4813
LeftForeArm  -8.71055 -69.1232 -33.5751
LeftHand  -0.47289 10.6189 -8.66181
RightShoulder  -0.0155907 -0.703073 -10.3268
RightArm  -71.2789 27.4915 7.25481
RightForeArm  -10.7062 70.2071 36.3706
RightHand  -0.248282 8.52419 -2.45121
LeftUpLeg  82.2198 -1.01422 8.82495
LeftLeg  53.1243 -0.537983 -0.163133
LeftFoot  -34.6241 -0.063655 -1.32211
LeftToes  -5.36635e-011 -6.70219e-011 5.24975e-011
226
root  -56.5055 30.5759 -3.00203 8.50903 82.9472 112.77
RightUpLeg  75.9391 35.3728 -38.5647
RightLeg  56.4958 15.1181 22.7581
RightFoot  -33.3989 -0.633481 -2.07857
RightToes  3.49245e-010 0 -3.6325e-017
Spine  -16.6736 -43.8856 59.9551
Spine1  111.48 38.5 -72.7557
HEad  -33.0274 1.1179 -7.42786
LeftShoulder1  -0.0292468 -5.30082 10.0422
LeftArm  -74.6375 -36.7018 -16.4911
LeftForeArm  -11.2714 -68.2212 -31.9985
LeftHand  -0.716512 11.8398 -11.2441
RightShoulder  -0.0485972 -0.524615 -11.8551
RightArm  -74.4818 25.732 6.23373
RightForeArm  -6.85224 69.9993 35.4037
RightHand  -0.319653 7.99587 -3.13897
LeftUpLeg  88.2935 -0.843075 8.90536
LeftLeg  54.6729 0.0808574 0.731575
LeftFoot  -35.7499 -0.0172058 -1.08491
LeftToes  -5.36635e-011 -6.70219e-011 5.24975e-011
227
root  -56.2183 30.1411 -3.07804 0.22288 83.1219 108.598
RightUpLeg  79.9231 38.0323 -35.5971
RightLeg  57.5175 14.6906 22.9914
RightFoot  -33.9892 -0.761896 -2.65297
RightToes  3.49245e-010 0 -3.6325e-017
Spine  -19.8858 -42.6952 59.9484
Spine1  117.188 42.6072 -70.511
HEad  -31.4742 1.9648 -7.05465
LeftShoulder1  -0.0797588 -4.77103 10.7572
LeftArm  -77.1197 -35.9792 -14.3547
LeftForeArm  -14.4554 -67.3451 -30.6817
LeftHand  -0.853876 12.965 -11.4731
RightShoulder  -0.0560326 -1.91216 -13.7903
RightArm  -76.975 26.7476 6.73335
RightForeArm  -0.830895 69.4106 33.2325
RightHand  -0.335381 7.62514 -3.33146
LeftUpLeg  92.3437 -2.14915 10.052
LeftLeg  55.7378 -0.256081 0.232207
LeftFoot  -36.4926 0.112912 -0.480706
LeftToes  -5.36635e-011 -6.70219e-011 5.24975e-011
228
root  -56.5092 30.1274 -3.16743 -5.65858 83.9825 101.164
RightUpLeg  80.4533 34.7676 -31.1818
RightLeg  57.7391 12.1257 19.4256
RightFoot  -34.657 -0.500936 -1.28397
RightToes  3.49245e-010 0 -3.6325e-017
Spine  -34.04 -38.1753 71.7313
Spine1  117.156 47.7878 -78.0307
HEad  -30.0902 1.50195 -7.41762
LeftShoulder1  -0.14946 -4.62186 11.7652
LeftArm  -80.328 -35.3605 -12.8881
LeftForeArm  -14.7694 -66.5815 -29.4202
LeftHand  -0.75593 11.9913 -11.5906
RightShoulder  -0.0744039 -1.91689 -15.618
RightArm  -78.2316 25.2135 4.89251
RightForeArm  3.0536 69.4918 32.8533
RightHand  -0.5278 7.40242 -5.19598
LeftUpLeg  89.8744 -1.30596 8.80641
LeftLeg  56.8917 1.29699 2.8348
LeftFoot  -36.5051 -0.13178 -1.5864
LeftToes  -5.36635e-011 -6.70219e-011 5.24975e-011
229
root  -56.9631 29.9352 -3.38959 -7.27514 84.2272 99.2895
RightUpLeg  80.4221 33.0453 -27.7679
RightLeg  58.9095 9.76185 16.5918
RightFoot  -34.9738 -0.349382 -0.529826
RightToes  3.49245e-010 0 -3.6325e-017
Spine  -44.1385 -36.5426 80.9413
Spine1  112.352 51.2542 -88.4414
HEad  -29.157 1.8337 -8.34398
LeftShoulder1  -0.154958 -4.03561 12.0137
LeftArm  -84.7639 -35.0822 -11.3521
LeftForeArm  -14.3422 -65.5089 -27.6957
LeftHand  -0.690901 11.0921 -12.2534
RightShoulder  -0.0914483 -2.39384 -19.488
RightArm  -79.8193 24.3842 3.97544
RightForeArm  10.169 69.8046 32.4256
RightHand  -0.685876 4.96651 -7.96738
LeftUpLeg  87.9586 0.765821 6.2649
LeftLeg  58.8987 3.1797 6.35457
LeftFoot  -36.3202 -0.388009 -2.74307
LeftToes  -5.36635e-011 -6.70219e-011 5.24975e-011
